# xmcd CD database file
#
# Track frame offsets:
#	150
#	51170
#	130990
#	237555
#
# Disc length: 3554 seconds
#
# Revision: 0
# Processed by: cddbd v1.5.1PL0 Copyright (c) Steve Scherf et al.
# Submitted via: CDex 1.51
#
DISCID=350de004
DTITLE=Suar Agung - Gamelan from western of BALI Jegog
DYEAR=1900
DGENRE=Ethnic
TTITLE0=Tangis Alit
TTITLE1=Sekar Jagat
TTITLE2=Gilak
TTITLE3=Penutup
EXTD=
EXTT0=
EXTT1=
EXTT2=
EXTT3=
PLAYORDER=
